<?xml version="1.0" encoding="UTF-8" standalone="no"?>
<svg
   xmlns:dc="http://purl.org/dc/elements/1.1/"
   xmlns:cc="http://creativecommons.org/ns#"
   xmlns:rdf="http://www.w3.org/1999/02/22-rdf-syntax-ns#"
   xmlns:svg="http://www.w3.org/2000/svg"
   xmlns="http://www.w3.org/2000/svg"
   xmlns:sodipodi="http://sodipodi.sourceforge.net/DTD/sodipodi-0.dtd"
   xmlns:inkscape="http://www.inkscape.org/namespaces/inkscape"
   width="100"
   height="100"
   viewBox="0 0 2.5 2.5"
   version="1.1"
   id="svg10"
   sodipodi:docname="en.svg"
   inkscape:version="0.92.4 (5da689c313, 2019-01-14)">
  <metadata
     id="metadata16">
    <rdf:RDF>
      <cc:Work
         rdf:about="">
        <dc:format>image/svg+xml</dc:format>
        <dc:type
           rdf:resource="http://purl.org/dc/dcmitype/StillImage" />
        <dc:title></dc:title>
      </cc:Work>
    </rdf:RDF>
  </metadata>
  <defs
     id="defs14">
    <clipPath
       clipPathUnits="userSpaceOnUse"
       id="clipPath22">
      <path
         style="opacity:1;fill:none;fill-opacity:0.94117647;stroke:none;stroke-width:0.09046667;stroke-miterlimit:4;stroke-dasharray:none;stroke-opacity:1"
         id="path24"
         sodipodi:type="arc"
         sodipodi:cx="0.1467438"
         sodipodi:cy="8.1339197"
         sodipodi:rx="7.5"
         sodipodi:ry="7.5"
         sodipodi:start="0"
         sodipodi:end="6.2829235"
         sodipodi:open="true"
         d="M 7.6467438,8.1339197 A 7.5,7.5 0 0 1 0.14723469,15.63392 7.5,7.5 0 0 1 -7.3532561,8.1349015 7.5,7.5 0 0 1 0.14527114,0.63391986 7.5,7.5 0 0 1 7.6467435,8.1319562" />
    </clipPath>
    <clipPath
       clipPathUnits="userSpaceOnUse"
       id="clipPath26">
      <path
         style="opacity:1;fill:none;fill-opacity:0.94117647;stroke:none;stroke-width:0.09046667;stroke-miterlimit:4;stroke-dasharray:none;stroke-opacity:1"
         id="path28"
         sodipodi:type="arc"
         sodipodi:cx="0.1467438"
         sodipodi:cy="8.1339197"
         sodipodi:rx="7.5"
         sodipodi:ry="7.5"
         sodipodi:start="0"
         sodipodi:end="6.2829235"
         sodipodi:open="true"
         d="M 7.6467438,8.1339197 A 7.5,7.5 0 0 1 0.14723469,15.63392 7.5,7.5 0 0 1 -7.3532561,8.1349015 7.5,7.5 0 0 1 0.14527114,0.63391986 7.5,7.5 0 0 1 7.6467435,8.1319562" />
    </clipPath>
    <clipPath
       clipPathUnits="userSpaceOnUse"
       id="clipPath30">
      <path
         style="opacity:1;fill:none;fill-opacity:0.94117647;stroke:none;stroke-width:0.09046667;stroke-miterlimit:4;stroke-dasharray:none;stroke-opacity:1"
         id="path32"
         sodipodi:type="arc"
         sodipodi:cx="0.1467438"
         sodipodi:cy="8.1339197"
         sodipodi:rx="7.5"
         sodipodi:ry="7.5"
         sodipodi:start="0"
         sodipodi:end="6.2829235"
         sodipodi:open="true"
         d="M 7.6467438,8.1339197 A 7.5,7.5 0 0 1 0.14723469,15.63392 7.5,7.5 0 0 1 -7.3532561,8.1349015 7.5,7.5 0 0 1 0.14527114,0.63391986 7.5,7.5 0 0 1 7.6467435,8.1319562" />
    </clipPath>
    <clipPath
       clipPathUnits="userSpaceOnUse"
       id="clipPath34">
      <path
         style="opacity:1;fill:none;fill-opacity:0.94117647;stroke:none;stroke-width:0.09046667;stroke-miterlimit:4;stroke-dasharray:none;stroke-opacity:1"
         id="path36"
         sodipodi:type="arc"
         sodipodi:cx="0.1467438"
         sodipodi:cy="8.1339197"
         sodipodi:rx="7.5"
         sodipodi:ry="7.5"
         sodipodi:start="0"
         sodipodi:end="6.2829235"
         sodipodi:open="true"
         d="M 7.6467438,8.1339197 A 7.5,7.5 0 0 1 0.14723469,15.63392 7.5,7.5 0 0 1 -7.3532561,8.1349015 7.5,7.5 0 0 1 0.14527114,0.63391986 7.5,7.5 0 0 1 7.6467435,8.1319562" />
    </clipPath>
  </defs>
  <sodipodi:namedview
     pagecolor="#ffffff"
     bordercolor="#666666"
     borderopacity="1"
     objecttolerance="10"
     gridtolerance="10"
     guidetolerance="10"
     inkscape:pageopacity="0"
     inkscape:pageshadow="2"
     inkscape:window-width="1600"
     inkscape:window-height="836"
     id="namedview12"
     showgrid="false"
     fit-margin-top="0"
     fit-margin-left="0"
     fit-margin-right="0"
     fit-margin-bottom="0"
     scale-x="0.025"
     inkscape:pagecheckerboard="true"
     inkscape:showpageshadow="false"
     inkscape:zoom="0.39333333"
     inkscape:cx="72.439888"
     inkscape:cy="223.05974"
     inkscape:window-x="0"
     inkscape:window-y="27"
     inkscape:window-maximized="1"
     inkscape:current-layer="svg10" />
  <g
     id="g42"
     transform="matrix(0.16666667,0,0,0.16666667,1.2255427,-0.10565329)">
    <rect
       clip-path="url(#clipPath34)"
       style="fill:#00247d"
       y="0.63391954"
       x="-12.353256"
       id="rect2"
       height="15"
       width="25" />
    <path
       clip-path="url(#clipPath30)"
       style="stroke:#ffffff;stroke-width:3"
       inkscape:connector-curvature="0"
       id="path4"
       d="m -12.353256,0.63391973 25,14.99999927 m 0,-14.99999927 -25,14.99999927" />
    <path
       clip-path="url(#clipPath26)"
       style="stroke:#ffffff;stroke-width:5"
       inkscape:connector-curvature="0"
       id="path6"
       d="M 0.14674399,0.63391973 V 15.633919 M -12.353256,8.1339197 h 25" />
    <path
       clip-path="url(#clipPath22)"
       style="stroke:#cf142b;stroke-width:3"
       inkscape:connector-curvature="0"
       id="path8"
       d="M 0.14674399,0.63391973 V 15.633919 M -12.353256,8.1339197 h 25" />
  </g>
</svg>
